<svg width="606" height="407" viewBox="0 0 606 407" fill="none" xmlns="http://www.w3.org/2000/svg">
<line x1="243.5" y1="95" x2="243.5" y2="406" stroke="#E9E9E9"/>
<line x1="369.5" y1="95" x2="369.5" y2="406" stroke="#E9E9E9"/>
<line x1="495.5" y1="95" x2="495.5" y2="406" stroke="#E9E9E9"/>
<line x1="117.5" y1="96" x2="117.5" y2="407" stroke="#E9E9E9"/>
<g filter="url(#filter0_d)">
<rect x="26" y="280" width="68" height="26" fill="#C4C4C4"/>
</g>
<g filter="url(#filter1_d)">
<rect x="520" y="16" width="66" height="22" fill="#C4C4C4"/>
</g>
<rect x="1.1377" y="361.188" width="8.77709" height="3.5575" fill="#A0ADB5" stroke="#A0ADB5"/>
<line x1="5.24829" y1="351.457" x2="5.24829" y2="379.59" stroke="#A0ADB5"/>
<rect x="29.135" y="361.188" width="8.77709" height="12.0825" fill="#A0ADB5" stroke="#A0ADB5"/>
<line x1="33.2454" y1="351.457" x2="33.2454" y2="383" stroke="#A0ADB5"/>
<rect x="57.1326" y="338.901" width="8.77709" height="20.4857" fill="#A0ADB5" stroke="#A0ADB5"/>
<line x1="61.2432" y1="322.473" x2="61.2432" y2="362.54" stroke="#A0ADB5"/>
<rect x="71.1313" y="358.813" width="8.77709" height="10.1339" fill="#A0ADB5" stroke="#A0ADB5"/>
<line x1="75.2422" y1="343.785" x2="75.2422" y2="371.917" stroke="#A0ADB5"/>
<rect x="141.125" y="318.563" width="8.77709" height="6.9675" fill="#A0ADB5" stroke="#A0ADB5"/>
<line x1="145.236" y1="315.653" x2="145.236" y2="342.08" stroke="#A0ADB5"/>
<rect x="169.123" y="321.12" width="8.77709" height="4.41" fill="#A0ADB5" stroke="#A0ADB5"/>
<line x1="173.233" y1="315.652" x2="173.233" y2="330.145" stroke="#A0ADB5"/>
<rect x="15.1365" y="362.892" width="8.77709" height="1.8525" fill="#A0ADB5" fill-opacity="0.2" stroke="#A0ADB5"/>
<line x1="19.2473" y1="344.638" x2="19.2473" y2="365.95" stroke="#A0ADB5"/>
<rect x="15.1365" y="362.892" width="8.77709" height="1.8525" fill="#FB7101" stroke="#FB7101"/>
<line x1="19.2473" y1="344.638" x2="19.2473" y2="365.95" stroke="#FB7101"/>
<rect x="43.2031" y="338.84" width="8.63821" height="34.4911" fill="#FB7101" stroke="#FB7101"/>
<line x1="47.2454" y1="335.26" x2="47.2454" y2="378.738" stroke="#FB7101"/>
<rect x="85.1304" y="356.925" width="8.77709" height="12.0825" fill="#FB7101" stroke="#FB7101"/>
<line x1="89.2407" y1="335.26" x2="89.2407" y2="375.328" stroke="#FB7101"/>
<rect x="99.1289" y="332.203" width="8.77709" height="24.0175" fill="#FB7101" stroke="#FB7101"/>
<line x1="103.24" y1="327.588" x2="103.24" y2="359.983" stroke="#FB7101"/>
<rect x="113.128" y="319.415" width="8.77709" height="13.7875" fill="#FB7101" stroke="#FB7101"/>
<line x1="117.239" y1="306.275" x2="117.239" y2="336.113" stroke="#FB7101"/>
<rect x="127.126" y="318.562" width="8.77709" height="4.41" fill="#FB7101" stroke="#FB7101"/>
<line x1="131.237" y1="312.242" x2="131.237" y2="332.702" stroke="#FB7101"/>
<rect x="155.124" y="320.267" width="8.77709" height="7.82" fill="#FB7101" stroke="#FB7101"/>
<line x1="159.235" y1="314.8" x2="159.235" y2="330.998" stroke="#FB7101"/>
<rect x="183.121" y="312.595" width="8.77709" height="12.935" fill="#FB7101" stroke="#FB7101"/>
<line x1="187.232" y1="302.013" x2="187.232" y2="327.588" stroke="#FB7101"/>
<rect x="393.103" y="157.44" width="8.77709" height="30.8375" fill="#A0ADB5" stroke="#A0ADB5"/>
<line x1="397.214" y1="130.66" x2="397.214" y2="192.04" stroke="#A0ADB5"/>
<rect x="421.1" y="167.67" width="8.77709" height="5.2625" fill="#A0ADB5" stroke="#A0ADB5"/>
<line x1="425.21" y1="142.595" x2="425.21" y2="175.842" stroke="#A0ADB5"/>
<rect x="449.098" y="141.242" width="8.77709" height="15.4925" fill="#FB7101" stroke="#FB7101"/>
<line x1="453.209" y1="136.628" x2="453.209" y2="172.432" stroke="#FB7101"/>
<rect x="463.097" y="96.06" width="8.77709" height="45.33" fill="#FB7101" stroke="#FB7101"/>
<line x1="467.208" y1="91.4451" x2="467.208" y2="143.448" stroke="#FB7101"/>
<rect x="533.091" y="90.0926" width="8.77709" height="8.6725" fill="#FB7101" stroke="#FB7101"/>
<line x1="537.202" y1="66.7225" x2="537.202" y2="104.232" stroke="#FB7101"/>
<rect x="561.087" y="54.2875" width="8.77709" height="18.9025" fill="#A0ADB5" stroke="#A0ADB5"/>
<line x1="565.198" y1="49.6725" x2="565.198" y2="94.855" stroke="#A0ADB5"/>
<rect x="407.102" y="165.965" width="8.77709" height="22.3125" fill="#FB7101" stroke="#FB7101"/>
<line x1="411.213" y1="153.677" x2="411.213" y2="197.155" stroke="#FB7101"/>
<rect x="435.099" y="154.03" width="8.77709" height="3.5575" fill="#A0ADB5" stroke="#A0ADB5"/>
<line x1="439.21" y1="150.267" x2="439.21" y2="175.842" stroke="#A0ADB5"/>
<rect x="477.095" y="96.06" width="8.77709" height="5.2625" fill="#A0ADB5" stroke="#A0ADB5"/>
<line x1="481.206" y1="42" x2="481.206" y2="113.61" stroke="#A0ADB5"/>
<rect x="491.094" y="90.0925" width="8.77709" height="12.0825" fill="#FB7101" stroke="#FB7101"/>
<line x1="495.205" y1="59.05" x2="495.205" y2="110.2" stroke="#FB7101"/>
<rect x="505.093" y="87.535" width="8.77709" height="18.05" fill="#A0ADB5" stroke="#A0ADB5"/>
<line x1="509.204" y1="83.7725" x2="509.204" y2="125.545" stroke="#A0ADB5"/>
<rect x="519.092" y="97.765" width="8.77709" height="7.82" fill="#FB7101" stroke="#FB7101"/>
<line x1="523.203" y1="76.1" x2="523.203" y2="125.545" stroke="#FB7101"/>
<rect x="547.089" y="52.5825" width="8.77709" height="40.215" fill="#FB7101" stroke="#FB7101"/>
<line x1="551.2" y1="47.115" x2="551.2" y2="104.232" stroke="#FB7101"/>
<rect x="575.087" y="76.4524" width="8.77709" height="35.1" fill="#A0ADB5" stroke="#A0ADB5"/>
<line x1="579.198" y1="66.7224" x2="579.198" y2="114.462" stroke="#A0ADB5"/>
<rect x="589.085" y="107.995" width="8.77709" height="5.2625" fill="#FB7101" stroke="#FB7101"/>
<line x1="593.196" y1="84.625" x2="593.196" y2="134.07" stroke="#FB7101"/>
<rect x="197.12" y="288.725" width="8.77709" height="24.0175" fill="#FB7101" stroke="#FB7101"/>
<line x1="201.231" y1="281.552" x2="201.231" y2="312.242" stroke="#FB7101"/>
<rect x="225.118" y="261.445" width="8.77709" height="3.5575" fill="#FB7101" stroke="#FB7101"/>
<line x1="229.229" y1="259.388" x2="229.229" y2="267.913" stroke="#FB7101"/>
<rect x="253.115" y="240.985" width="8.77709" height="19.755" fill="#A0ADB5" stroke="#A0ADB5"/>
<line x1="257.226" y1="236.37" x2="257.226" y2="264.503" stroke="#A0ADB5"/>
<rect x="267.114" y="237.575" width="8.77709" height="22.3125" fill="#FB7101" stroke="#FB7101"/>
<line x1="271.225" y1="227.845" x2="271.225" y2="262.797" stroke="#FB7101"/>
<rect x="337.108" y="252.068" width="8.77709" height="36.805" fill="#FB7101" stroke="#FB7101"/>
<line x1="341.219" y1="240.633" x2="341.219" y2="295.193" stroke="#FB7101"/>
<rect x="365.105" y="156.587" width="8.77709" height="26.575" fill="#FB7101" stroke="#FB7101"/>
<line x1="369.216" y1="141.742" x2="369.216" y2="186.925" stroke="#FB7101"/>
<rect x="211.119" y="266.56" width="8.77709" height="22.3125" fill="#FB7101" stroke="#FB7101"/>
<line x1="215.229" y1="252.568" x2="215.229" y2="291.783" stroke="#FB7101"/>
<rect x="239.116" y="240.985" width="8.77709" height="19.755" fill="#FB7101" stroke="#FB7101"/>
<line x1="243.227" y1="230.402" x2="243.227" y2="264.502" stroke="#FB7101"/>
<rect x="281.113" y="237.575" width="8.77709" height="16.345" fill="#A0ADB5" stroke="#A0ADB5"/>
<line x1="285.223" y1="230.402" x2="285.223" y2="255.977" stroke="#A0ADB5"/>
<rect x="295.111" y="253.772" width="8.77709" height="26.575" fill="#A0ADB5" stroke="#A0ADB5"/>
<line x1="299.222" y1="243.19" x2="299.222" y2="284.11" stroke="#A0ADB5"/>
<rect x="309.11" y="279.348" width="8.77709" height="12.935" fill="#A0ADB5" stroke="#A0ADB5"/>
<line x1="313.221" y1="275.585" x2="313.221" y2="300.307" stroke="#A0ADB5"/>
<rect x="323.109" y="287.872" width="8.77709" height="4.41" fill="#FB7101" stroke="#FB7101"/>
<line x1="327.22" y1="257.682" x2="327.22" y2="297.75" stroke="#FB7101"/>
<rect x="351.107" y="188.13" width="8.77709" height="64.085" fill="#FB7101" stroke="#FB7101"/>
<line x1="355.218" y1="186.073" x2="355.218" y2="251.715" stroke="#FB7101"/>
<rect x="379.104" y="154.883" width="8.77709" height="2.705" fill="#A0ADB5" stroke="#A0ADB5"/>
<line x1="383.215" y1="146.858" x2="383.215" y2="184.368" stroke="#A0ADB5"/>
<rect x="17" y="271" width="88" height="37" rx="3" fill="#F5F9FA"/>
<path d="M59.5 312.5L55 308H64L59.5 312.5Z" fill="#F5F9FA"/>
<rect x="509" y="1" width="88" height="37" rx="3" fill="#F5F9FA"/>
<path d="M551.5 42.5L547 38H556L551.5 42.5Z" fill="#F5F9FA"/>
<path d="M523.984 23.352V20.472H521.088V18.264H523.984V15.384H526.256V18.264H529.152V20.472H526.256V23.352H523.984ZM531.018 25V23.048L534.746 19.992C535.482 19.384 535.989 18.8987 536.266 18.536C536.544 18.1627 536.682 17.752 536.682 17.304C536.682 16.8453 536.544 16.488 536.266 16.232C535.989 15.976 535.626 15.848 535.178 15.848C534.762 15.848 534.384 15.9653 534.042 16.2C533.712 16.424 533.328 16.808 532.89 17.352L531.162 15.96C531.749 15.16 532.352 14.5733 532.97 14.2C533.6 13.8267 534.389 13.64 535.338 13.64C536.501 13.64 537.434 13.96 538.138 14.6C538.842 15.2293 539.194 16.072 539.194 17.128C539.194 17.736 539.077 18.2853 538.842 18.776C538.608 19.256 538.304 19.6827 537.93 20.056C537.557 20.4187 536.997 20.888 536.25 21.464L534.426 22.872H539.306V25H531.018ZM549.627 23.544C548.699 24.6427 547.499 25.192 546.027 25.192C544.555 25.192 543.36 24.6427 542.443 23.544C541.526 22.4453 541.067 21.064 541.067 19.4C541.067 17.7467 541.531 16.3707 542.459 15.272C543.387 14.1627 544.587 13.608 546.059 13.608C547.52 13.608 548.71 14.1573 549.627 15.256C550.555 16.3547 551.019 17.736 551.019 19.4C551.019 21.0533 550.555 22.4347 549.627 23.544ZM544.267 21.96C544.726 22.632 545.323 22.968 546.059 22.968C546.795 22.968 547.382 22.6373 547.819 21.976C548.267 21.304 548.491 20.4453 548.491 19.4C548.491 18.376 548.262 17.528 547.803 16.856C547.344 16.1733 546.752 15.832 546.027 15.832C545.302 15.832 544.715 16.168 544.267 16.84C543.819 17.5013 543.595 18.3547 543.595 19.4C543.595 20.4347 543.819 21.288 544.267 21.96ZM561.315 23.544C560.387 24.6427 559.187 25.192 557.715 25.192C556.243 25.192 555.048 24.6427 554.131 23.544C553.213 22.4453 552.755 21.064 552.755 19.4C552.755 17.7467 553.219 16.3707 554.147 15.272C555.075 14.1627 556.275 13.608 557.747 13.608C559.208 13.608 560.397 14.1573 561.315 15.256C562.243 16.3547 562.707 17.736 562.707 19.4C562.707 21.0533 562.243 22.4347 561.315 23.544ZM555.955 21.96C556.413 22.632 557.011 22.968 557.747 22.968C558.483 22.968 559.069 22.6373 559.507 21.976C559.955 21.304 560.179 20.4453 560.179 19.4C560.179 18.376 559.949 17.528 559.491 16.856C559.032 16.1733 558.44 15.832 557.715 15.832C556.989 15.832 556.403 16.168 555.955 16.84C555.507 17.5013 555.283 18.3547 555.283 19.4C555.283 20.4347 555.507 21.288 555.955 21.96ZM573.002 23.544C572.074 24.6427 570.874 25.192 569.402 25.192C567.93 25.192 566.735 24.6427 565.818 23.544C564.901 22.4453 564.442 21.064 564.442 19.4C564.442 17.7467 564.906 16.3707 565.834 15.272C566.762 14.1627 567.962 13.608 569.434 13.608C570.895 13.608 572.085 14.1573 573.002 15.256C573.93 16.3547 574.394 17.736 574.394 19.4C574.394 21.0533 573.93 22.4347 573.002 23.544ZM567.642 21.96C568.101 22.632 568.698 22.968 569.434 22.968C570.17 22.968 570.757 22.6373 571.194 21.976C571.642 21.304 571.866 20.4453 571.866 19.4C571.866 18.376 571.637 17.528 571.178 16.856C570.719 16.1733 570.127 15.832 569.402 15.832C568.677 15.832 568.09 16.168 567.642 16.84C567.194 17.5013 566.97 18.3547 566.97 19.4C566.97 20.4347 567.194 21.288 567.642 21.96ZM579.746 26.568V24.952C578.327 24.7707 577.068 24.264 575.97 23.432L577.218 21.608C578.135 22.3013 579.004 22.7333 579.826 22.904V20.36C578.631 20.04 577.756 19.624 577.202 19.112C576.658 18.5893 576.386 17.864 576.386 16.936C576.386 16.0613 576.69 15.3467 577.298 14.792C577.906 14.2373 578.722 13.9067 579.746 13.8V12.872H581.41V13.832C582.487 13.9813 583.479 14.376 584.386 15.016L583.314 16.888C582.631 16.4293 581.97 16.1147 581.33 15.944V18.36C582.556 18.6907 583.442 19.128 583.986 19.672C584.53 20.2053 584.802 20.9253 584.802 21.832C584.802 22.7067 584.492 23.4213 583.874 23.976C583.266 24.5307 582.444 24.8667 581.41 24.984V26.568H579.746ZM579.826 17.96V15.8C579.09 15.896 578.722 16.2373 578.722 16.824C578.722 17.08 578.796 17.2987 578.946 17.48C579.106 17.6507 579.399 17.8107 579.826 17.96ZM581.33 22.984C582.087 22.8667 582.466 22.5147 582.466 21.928C582.466 21.6507 582.38 21.4267 582.21 21.256C582.05 21.0747 581.756 20.904 581.33 20.744V22.984Z" fill="#FB7101"/>
<path d="M40.344 296L45.352 286.928H40.088V284.8H48.152V286.656L43.128 296H40.344ZM53.38 296.192C51.7587 296.192 50.3613 295.632 49.188 294.512L50.676 292.736C51.572 293.547 52.4627 293.952 53.348 293.952C53.9347 293.952 54.3933 293.813 54.724 293.536C55.0547 293.259 55.22 292.869 55.22 292.368C55.22 291.899 55.0387 291.531 54.676 291.264C54.3133 290.987 53.8333 290.848 53.236 290.848C52.6387 290.848 52.0147 290.987 51.364 291.264L49.94 290.32L50.26 284.8H57.14V286.96H52.372L52.244 288.896C52.756 288.768 53.2467 288.704 53.716 288.704C54.8787 288.704 55.8227 289.003 56.548 289.6C57.2733 290.197 57.636 291.104 57.636 292.32C57.636 293.504 57.2467 294.448 56.468 295.152C55.7 295.845 54.6707 296.192 53.38 296.192ZM68.0021 294.544C67.0741 295.643 65.8741 296.192 64.4021 296.192C62.9301 296.192 61.7355 295.643 60.8181 294.544C59.9008 293.445 59.4421 292.064 59.4421 290.4C59.4421 288.747 59.9061 287.371 60.8341 286.272C61.7621 285.163 62.9621 284.608 64.4341 284.608C65.8955 284.608 67.0848 285.157 68.0021 286.256C68.9301 287.355 69.3941 288.736 69.3941 290.4C69.3941 292.053 68.9301 293.435 68.0021 294.544ZM62.6421 292.96C63.1008 293.632 63.6981 293.968 64.4341 293.968C65.1701 293.968 65.7568 293.637 66.1941 292.976C66.6421 292.304 66.8661 291.445 66.8661 290.4C66.8661 289.376 66.6368 288.528 66.1781 287.856C65.7195 287.173 65.1275 286.832 64.4021 286.832C63.6768 286.832 63.0901 287.168 62.6421 287.84C62.1941 288.501 61.9701 289.355 61.9701 290.4C61.9701 291.435 62.1941 292.288 62.6421 292.96ZM74.7456 297.568V295.952C73.327 295.771 72.0683 295.264 70.9696 294.432L72.2176 292.608C73.135 293.301 74.0043 293.733 74.8256 293.904V291.36C73.631 291.04 72.7563 290.624 72.2016 290.112C71.6576 289.589 71.3856 288.864 71.3856 287.936C71.3856 287.061 71.6896 286.347 72.2976 285.792C72.9056 285.237 73.7216 284.907 74.7456 284.8V283.872H76.4096V284.832C77.487 284.981 78.479 285.376 79.3856 286.016L78.3136 287.888C77.631 287.429 76.9696 287.115 76.3296 286.944V289.36C77.5563 289.691 78.4416 290.128 78.9856 290.672C79.5296 291.205 79.8016 291.925 79.8016 292.832C79.8016 293.707 79.4923 294.421 78.8736 294.976C78.2656 295.531 77.4443 295.867 76.4096 295.984V297.568H74.7456ZM74.8256 288.96V286.8C74.0896 286.896 73.7216 287.237 73.7216 287.824C73.7216 288.08 73.7963 288.299 73.9456 288.48C74.1056 288.651 74.399 288.811 74.8256 288.96ZM76.3296 293.984C77.087 293.867 77.4656 293.515 77.4656 292.928C77.4656 292.651 77.3803 292.427 77.2096 292.256C77.0496 292.075 76.7563 291.904 76.3296 291.744V293.984Z" fill="#A0ADB5"/>
<defs>
<filter id="filter0_d" x="6" y="264" width="108" height="66" filterUnits="userSpaceOnUse" color-interpolation-filters="sRGB">
<feFlood flood-opacity="0" result="BackgroundImageFix"/>
<feColorMatrix in="SourceAlpha" type="matrix" values="0 0 0 0 0 0 0 0 0 0 0 0 0 0 0 0 0 0 127 0"/>
<feOffset dy="4"/>
<feGaussianBlur stdDeviation="10"/>
<feColorMatrix type="matrix" values="0 0 0 0 0 0 0 0 0 0 0 0 0 0 0 0 0 0 0.15 0"/>
<feBlend mode="normal" in2="BackgroundImageFix" result="effect1_dropShadow"/>
<feBlend mode="normal" in="SourceGraphic" in2="effect1_dropShadow" result="shape"/>
</filter>
<filter id="filter1_d" x="500" y="0" width="106" height="62" filterUnits="userSpaceOnUse" color-interpolation-filters="sRGB">
<feFlood flood-opacity="0" result="BackgroundImageFix"/>
<feColorMatrix in="SourceAlpha" type="matrix" values="0 0 0 0 0 0 0 0 0 0 0 0 0 0 0 0 0 0 127 0"/>
<feOffset dy="4"/>
<feGaussianBlur stdDeviation="10"/>
<feColorMatrix type="matrix" values="0 0 0 0 0.00416667 0 0 0 0 0.00416667 0 0 0 0 0.00416667 0 0 0 0.2 0"/>
<feBlend mode="normal" in2="BackgroundImageFix" result="effect1_dropShadow"/>
<feBlend mode="normal" in="SourceGraphic" in2="effect1_dropShadow" result="shape"/>
</filter>
</defs>
</svg>
