<svg width="21" height="47" viewBox="0 0 21 47" fill="none" xmlns="http://www.w3.org/2000/svg">
<path d="M5.35667 16.7914C5.35667 16.7914 6.87016 14.4087 5.89135 11.0996C4.90911 7.79265 2.62179 6.53662 2.62179 6.53662C2.62179 6.53662 0.910144 9.37624 1.86675 12.5998C2.82165 15.8254 5.35667 16.7914 5.35667 16.7914Z" fill="#DAD9D9"/>
<path d="M9.55695 18.4835C9.55695 18.4835 12.203 18.2247 13.7182 15.335C15.2334 12.4474 14.0752 9.21765 14.0752 9.21765C14.0752 9.21765 11.6188 9.82689 10.0626 12.7917C8.50811 15.7544 9.55695 18.4835 9.55695 18.4835Z" fill="#DAD9D9"/>
<path d="M9.82483 22.3017C8.60004 25.4877 9.93074 28.029 9.93074 28.029C9.93074 28.029 12.5289 27.3488 13.7213 24.2463C14.9119 21.1396 13.4189 18.1226 13.4189 18.1226C13.4189 18.1226 11.0496 19.1157 9.82483 22.3017Z" fill="#DAD9D9"/>
<path d="M15.8051 24.8682C15.8051 24.8682 13.5212 26.1325 12.5475 29.4416C11.5739 32.7569 13.0925 35.1312 13.0925 35.1312C13.0925 35.1312 15.624 34.1569 16.5738 30.9292C17.5219 27.7015 15.8051 24.8682 15.8051 24.8682Z" fill="#DAD9D9"/>
<path d="M17.7086 42.2939C17.7086 42.2939 19.9053 40.4683 20.054 37.0444C20.2009 33.6185 17.8862 31.5112 17.8862 31.5112C17.8862 31.5112 15.997 33.5246 15.8449 37.0382C15.6946 40.5496 17.7086 42.2939 17.7086 42.2939Z" fill="#DAD9D9"/>
<path d="M8.73042 10.4154C8.73042 10.4154 11.0724 9.45979 11.7591 6.04429C12.4475 2.62879 11.1168 0.0332642 11.1168 0.0332642C11.1168 0.0332642 8.40415 1.23505 7.73283 4.56709C7.06322 7.89705 8.73042 10.4154 8.73042 10.4154Z" fill="#DAD9D9"/>
<path d="M5.35456 24.0544C5.35456 24.0544 6.22404 21.2315 4.4902 18.4252C2.75296 15.6169 0.265803 15.2393 0.265803 15.2393C0.265803 15.2393 -0.683961 18.5692 1.00717 21.3066C2.69829 24.0461 5.35456 24.0544 5.35456 24.0544Z" fill="#DAD9D9"/>
<path d="M7.2956 31.5029C7.2956 31.5029 7.62871 28.5152 5.42852 26.2493C3.22492 23.9814 0.730914 24.2901 0.730914 24.2901C0.730914 24.2901 0.409768 27.7953 2.55529 30.0049C4.70423 32.2123 7.2956 31.5029 7.2956 31.5029Z" fill="#DAD9D9"/>
<path d="M10.2503 37.6621C10.2503 37.6621 9.83179 34.691 7.17039 33.3473C4.50727 31.9994 2.20801 33.2158 2.20801 33.2158C2.20801 33.2158 2.77172 36.6752 5.3648 37.9897C7.95787 39.2979 10.2503 37.6621 10.2503 37.6621Z" fill="#DAD9D9"/>
<path d="M11.5417 40.2201C8.76758 39.2728 6.60156 40.8147 6.60156 40.8147C6.60156 40.8147 7.49838 44.1656 10.2008 45.0899C12.9066 46.0142 15.0214 44.055 15.0214 44.055C15.0214 44.055 14.3159 41.1653 11.5417 40.2201Z" fill="#DAD9D9"/>
<path d="M9.01899 12.4517L7.78566 11.7111C7.72075 11.8759 1.37642 28.3358 19.2034 46.9489L20.0951 45.674C3.12222 27.9498 8.76959 13.0756 9.01899 12.4517Z" fill="#DAD9D9"/>
</svg>
