<svg width="21" height="47" viewBox="0 0 21 47" fill="none" xmlns="http://www.w3.org/2000/svg">
<path d="M15.6423 16.7602C15.6423 16.7602 14.1271 14.3775 15.1076 11.0705C16.0864 7.76146 18.3754 6.50543 18.3754 6.50543C18.3754 6.50543 20.0854 9.34297 19.1288 12.5686C18.1773 15.7942 15.6423 16.7602 15.6423 16.7602Z" fill="#DAD9D9"/>
<path d="M11.4422 18.4524C11.4422 18.4524 8.7962 18.1916 7.27932 15.304C5.76415 12.4164 6.9223 9.18658 6.9223 9.18658C6.9223 9.18658 9.3787 9.79582 10.9366 12.7585C12.491 15.7234 11.4422 18.4524 11.4422 18.4524Z" fill="#DAD9D9"/>
<path d="M11.1736 22.2684C12.3984 25.4543 11.0677 27.9956 11.0677 27.9956C11.0677 27.9956 8.46947 27.3154 7.27543 24.2129C6.08651 21.1063 7.57778 18.0893 7.57778 18.0893C7.57778 18.0893 9.94879 19.0845 11.1736 22.2684Z" fill="#DAD9D9"/>
<path d="M5.19356 24.8368C5.19356 24.8368 7.47573 26.0991 8.45112 29.4144C9.4248 32.7277 7.90449 35.1021 7.90449 35.1021C7.90449 35.1021 5.37463 34.1256 4.42486 30.8979C3.4751 27.6702 5.19356 24.8368 5.19356 24.8368Z" fill="#DAD9D9"/>
<path d="M3.28687 42.2606C3.28687 42.2606 1.09184 40.4371 0.943227 37.0112C0.796322 33.5853 3.11264 31.4759 3.11264 31.4759C3.11264 31.4759 4.99848 33.4893 5.15222 37.0049C5.30425 40.5205 3.28687 42.2606 3.28687 42.2606Z" fill="#DAD9D9"/>
<path d="M12.2647 10.3841C12.2647 10.3841 9.92618 9.42851 9.23948 6.01305C8.55107 2.59759 9.88347 0 9.88347 0C9.88347 0 12.5961 1.20178 13.2657 4.53587C13.9353 7.8637 12.2647 10.3841 12.2647 10.3841Z" fill="#DAD9D9"/>
<path d="M15.644 24.0232C15.644 24.0232 14.7745 21.2002 16.5067 18.3939C18.2439 15.5855 20.7328 15.2079 20.7328 15.2079C20.7328 15.2079 21.6843 18.5379 19.9914 21.2753C18.2986 24.0148 15.644 24.0232 15.644 24.0232Z" fill="#DAD9D9"/>
<path d="M13.7038 31.4717C13.7038 31.4717 13.3689 28.4839 15.5708 26.2139C17.7744 23.948 20.2684 24.2568 20.2684 24.2568C20.2684 24.2568 20.5895 27.7641 18.4423 29.9716C16.2951 32.179 13.7038 31.4717 13.7038 31.4717Z" fill="#DAD9D9"/>
<path d="M10.7466 37.6309C10.7466 37.6309 11.1668 34.6578 13.8282 33.312C16.4931 31.9642 18.7906 33.1806 18.7906 33.1806C18.7906 33.1806 18.2269 36.6399 15.6338 37.9522C13.039 39.2667 10.7466 37.6309 10.7466 37.6309Z" fill="#DAD9D9"/>
<path d="M9.45522 40.1889C12.2294 39.2437 14.3971 40.7835 14.3971 40.7835C14.3971 40.7835 13.502 44.1322 10.7979 45.0627C8.09377 45.9828 5.979 44.0237 5.979 44.0237C5.979 44.0237 6.68279 41.1361 9.45522 40.1889Z" fill="#DAD9D9"/>
<path d="M11.9784 12.4206L13.2152 11.6799C13.2801 11.8447 19.6244 28.3046 1.79574 46.9156L0.905762 45.6408C17.8752 27.9207 12.2278 13.0423 11.9784 12.4206Z" fill="#DAD9D9"/>
</svg>
